HIERARCHY
ROOT Hips
{
	OFFSET -0.001795 -0.223333 0.028219
	CHANNELS 6 Xposition Yposition Zposition Zrotation Yrotation Xrotation 
	JOINT LeftUpLeg
	{
		OFFSET 0.069520 -0.091406 -0.006815
		CHANNELS 3 Zrotation Yrotation Xrotation
		JOINT LeftLeg
		{
			OFFSET 0.034277 -0.375199 -0.004496
			CHANNELS 3 Zrotation Yrotation Xrotation
			JOINT LeftFoot
			{
				OFFSET -0.013596 -0.397961 -0.043693
				CHANNELS 3 Zrotation Yrotation Xrotation
				JOINT LeftToe
				{
					OFFSET 0.026358 -0.055791 0.119288
					CHANNELS 3 Zrotation Yrotation Xrotation
					End Site
					{
						OFFSET 0.000000 0.000000 0.000000
					}
				}
			}
		}
	}
	JOINT RightUpLeg
	{
		OFFSET -0.067670 -0.090522 -0.004320
		CHANNELS 3 Zrotation Yrotation Xrotation
		JOINT RightLeg
		{
			OFFSET -0.038290 -0.382569 -0.008850
			CHANNELS 3 Zrotation Yrotation Xrotation
			JOINT RightFoot
			{
				OFFSET 0.015774 -0.398415 -0.042312
				CHANNELS 3 Zrotation Yrotation Xrotation
				JOINT RightToe
				{
					OFFSET -0.025372 -0.048144 0.123348
					CHANNELS 3 Zrotation Yrotation Xrotation
					End Site
					{
						OFFSET 0.000000 0.000000 0.000000
					}
				}
			}
		}
	}
	JOINT Spine
	{
		OFFSET -0.002533 0.108963 -0.026696
		CHANNELS 3 Zrotation Yrotation Xrotation
		JOINT Spine1
		{
			OFFSET 0.005487 0.135180 0.001092
			CHANNELS 3 Zrotation Yrotation Xrotation
			JOINT Spine2
			{
				OFFSET 0.001457 0.052922 0.025425
				CHANNELS 3 Zrotation Yrotation Xrotation
				JOINT Neck
				{
					OFFSET -0.002778 0.213870 -0.042857
					CHANNELS 3 Zrotation Yrotation Xrotation
					JOINT Head
					{
						OFFSET 0.005152 0.064970 0.051349
						CHANNELS 3 Zrotation Yrotation Xrotation
						End Site
						{
							OFFSET 0.000000 0.000000 0.000000
						}
					}
				}
				JOINT LeftShoulder
				{
					OFFSET 0.078845 0.121749 -0.034090
					CHANNELS 3 Zrotation Yrotation Xrotation
					JOINT LeftArm
					{
						OFFSET 0.090977 0.030469 -0.008868
						CHANNELS 3 Zrotation Yrotation Xrotation
						JOINT LeftForeArm
						{
							OFFSET 0.259612 -0.012772 -0.027456
							CHANNELS 3 Zrotation Yrotation Xrotation
							JOINT LeftHand
							{
								OFFSET 0.249234 0.008986 -0.001171
								CHANNELS 3 Zrotation Yrotation Xrotation
								End Site
								{
									OFFSET 0.000000 0.000000 0.000000
								}
							}
						}
					}
				}
				JOINT RightShoulder
				{
					OFFSET -0.081759 0.118833 -0.038615
					CHANNELS 3 Zrotation Yrotation Xrotation
					JOINT RightArm
					{
						OFFSET -0.096012 0.032551 -0.009143
						CHANNELS 3 Zrotation Yrotation Xrotation
						JOINT RightForeArm
						{
							OFFSET -0.253742 -0.013329 -0.021401
							CHANNELS 3 Zrotation Yrotation Xrotation
							JOINT RightHand
							{
								OFFSET -0.255298 0.007772 -0.005559
								CHANNELS 3 Zrotation Yrotation Xrotation
								End Site
								{
									OFFSET 0.000000 0.000000 0.000000
								}
							}
						}
					}
				}
			}
		}
	}
}
MOTION
Frames: 16
Frame Time: 0.050000
0.000000 0.964642 0.000000 -3.271997 -1.206390 -0.229516 -2.218615 1.348037 11.790629 1.742094 -0.846085 13.494514 -3.106526 -0.415495 12.563767 0.000000 0.000000 0.000000 5.201470 4.002316 -27.214784 1.096401 0.487151 18.213401 -0.300046 -7.300416 17.359524 0.000000 0.000000 0.000000 5.863217 -1.246264 12.968704 -1.019275 0.933321 -30.945461 -5.679973 -4.175463 30.004235 8.191344 -4.630105 -23.557100 0.000000 0.000000 0.000000 -20.326044 -2.363694 1.724716 -54.834979 -12.145432 -4.173478 -6.298243 -31.182369 3.939265 0.000000 0.000000 0.000000 27.606311 -6.048376 -7.505227 56.638978 -1.655607 -8.702691 5.451622 28.554657 2.490757 0.000000 0.000000 0.000000 
-0.002344 0.981008 0.051447 -4.139297 -2.279598 0.979634 -0.158382 0.858346 8.988113 -0.650518 -0.394792 20.078875 -4.529985 -0.140615 19.282859 0.000000 0.000000 0.000000 6.026682 3.896981 -25.232178 1.706421 0.424203 19.668965 -0.153268 -6.620277 15.229960 0.000000 0.000000 0.000000 7.617493 -1.311143 11.441316 -1.241293 1.005299 -33.520116 -5.126576 -2.642501 32.674422 6.974430 -3.636091 -25.138581 0.000000 0.000000 0.000000 -20.305015 -1.863484 1.417816 -53.987001 -11.242249 -4.919247 -8.810086 -29.735073 4.413304 0.000000 0.000000 0.000000 27.025718 -8.276638 -8.510485 57.419286 -1.819768 -9.278362 6.327079 28.073195 2.758873 0.000000 0.000000 0.000000 
-0.004323 1.000856 0.098267 -4.040347 -3.091239 0.474345 1.420596 0.295235 3.784205 -2.576368 0.284038 30.954726 -5.890145 0.792086 27.149067 0.000000 0.000000 0.000000 7.071383 3.272519 -20.381227 0.975297 0.603967 18.184282 -0.376171 -6.638441 13.569930 0.000000 0.000000 0.000000 8.556810 -1.441901 11.931401 -2.335245 1.177499 -33.210511 -4.444061 -0.516098 31.906988 6.269840 -2.902677 -24.903977 0.000000 0.000000 0.000000 -20.557866 -1.382194 0.668683 -53.803179 -9.189753 -5.707030 -9.643245 -30.001561 4.582869 0.000000 0.000000 0.000000 26.657870 -8.873676 -8.193347 56.845951 -3.279833 -9.946291 7.959104 27.891452 3.214597 0.000000 0.000000 0.000000 
-0.005358 1.015855 0.138385 -4.157566 -3.709716 -0.810128 2.891192 -0.174623 -2.543312 -6.078525 2.429362 43.320821 -2.829141 5.038533 28.401677 0.000000 0.000000 0.000000 7.343985 2.480065 -15.564393 0.931143 0.542995 16.092007 0.395577 -5.183444 13.241598 0.000000 0.000000 0.000000 8.862373 -1.588860 13.318595 -2.380217 1.202396 -34.374774 -4.163847 2.685255 32.969448 8.012608 -3.495757 -25.222349 0.000000 0.000000 0.000000 -19.666987 -1.362076 -0.028455 -54.297492 -8.402643 -6.105451 -9.626163 -29.918721 4.421068 0.000000 0.000000 0.000000 28.576148 -9.834881 -8.161969 55.228946 -1.748728 -9.332834 8.330122 27.385632 3.441225 0.000000 0.000000 0.000000 
-0.005142 1.029786 0.174177 -3.685612 -4.179669 -2.375678 3.851356 -0.492681 -9.127529 -9.632551 5.421367 52.473784 2.580621 10.844039 23.728520 0.000000 0.000000 0.000000 6.775517 1.501734 -10.107201 0.525243 0.501497 12.985321 1.224285 -4.057738 14.122644 0.000000 0.000000 0.000000 7.202929 -1.581947 15.775717 -2.258158 1.212416 -35.499402 -1.749212 4.787638 33.488154 7.682698 -3.034930 -24.889396 0.000000 0.000000 0.000000 -21.062283 -1.908929 -0.290235 -53.059377 -7.113957 -6.588960 -9.393100 -30.862116 4.387218 0.000000 0.000000 0.000000 28.547322 -9.856651 -7.379129 54.264059 -0.518274 -8.956937 8.017186 27.572544 3.531136 0.000000 0.000000 0.000000 
-0.003877 1.039042 0.207828 -2.396402 -4.494092 -3.201153 4.870310 -0.715870 -17.346076 -12.667129 8.445273 58.523093 5.037436 13.111269 16.231319 0.000000 0.000000 0.000000 5.209971 0.760831 -5.937474 0.325714 0.420222 10.365929 2.333874 -2.533186 15.167711 0.000000 0.000000 0.000000 5.689730 -1.406541 16.568548 -2.852867 1.308351 -35.422310 -0.640624 6.493128 33.444344 6.955918 -2.422354 -23.787009 0.000000 0.000000 0.000000 -21.668930 -0.861604 -1.408052 -52.112729 -6.339038 -6.714065 -10.150944 -31.386041 4.553428 0.000000 0.000000 0.000000 28.158294 -9.901281 -6.771555 54.773497 0.896664 -8.561369 6.877636 28.055662 3.453493 0.000000 0.000000 0.000000 
-0.001298 1.043247 0.239810 -1.278475 -4.745297 -4.008604 6.207383 -0.635962 -24.954588 -15.340879 10.443761 58.473344 7.686924 16.779770 14.773205 0.000000 0.000000 0.000000 3.762354 0.183116 -1.976224 -0.035208 0.391553 8.411633 3.341140 -0.536674 14.652176 0.000000 0.000000 0.000000 4.226639 -1.229042 17.418030 -3.457879 1.400270 -34.823518 1.044638 7.774806 32.996004 5.670786 -1.358479 -23.515759 0.000000 0.000000 0.000000 -22.338199 -0.015604 -2.359712 -52.111533 -5.304392 -6.977910 -9.111415 -31.363858 4.160895 0.000000 0.000000 0.000000 26.755123 -9.555735 -5.951975 55.154466 2.471909 -7.914542 7.355787 28.495704 3.694028 0.000000 0.000000 0.000000 
0.002482 1.039853 0.270655 -0.364866 -4.947738 -4.972968 8.452362 -0.044845 -30.525404 -17.417186 10.996237 54.028287 9.465172 19.249255 14.824737 0.000000 0.000000 0.000000 2.221153 -0.277467 2.060472 0.423812 0.236738 6.748694 3.410049 0.169717 13.341050 0.000000 0.000000 0.000000 3.107392 -1.092210 18.404800 -2.710088 1.296206 -35.091368 1.201238 9.328846 33.992044 4.993429 -0.806297 -22.103803 0.000000 0.000000 0.000000 -23.274583 0.071100 -2.938478 -51.662814 -4.551295 -7.222199 -8.116532 -30.857770 3.731376 0.000000 0.000000 0.000000 26.349039 -8.551353 -4.709618 55.062533 4.906390 -7.071288 6.051631 28.482908 3.470604 0.000000 0.000000 0.000000 
0.007465 1.031006 0.301215 0.188485 -5.031594 -6.009948 10.254898 0.566025 -32.798659 -17.291281 8.901424 44.137897 9.878180 19.688095 16.806955 0.000000 0.000000 0.000000 1.329221 -0.533733 4.895725 0.481247 0.250472 7.248295 2.930658 1.120497 9.643817 0.000000 0.000000 0.000000 2.034321 -0.972672 19.896117 -2.491180 1.252079 -34.247125 1.716130 10.360376 33.240862 5.053509 -0.546073 -22.853110 0.000000 0.000000 0.000000 -23.546710 0.232870 -3.437559 -52.045793 -4.638405 -7.032556 -5.214889 -29.308279 2.689851 0.000000 0.000000 0.000000 25.967039 -8.249266 -4.187357 54.731612 7.348609 -5.923812 4.459319 29.221414 3.235308 0.000000 0.000000 0.000000 
0.013785 1.020183 0.332330 0.470176 -5.381217 -7.011855 11.606082 1.046372 -32.565371 -16.020434 6.363496 32.827515 8.712093 18.002880 19.136726 0.000000 0.000000 0.000000 0.694880 -0.750755 7.669681 0.381199 0.294483 7.782262 2.607754 1.966446 6.868713 0.000000 0.000000 0.000000 1.312776 -0.876265 21.249432 -2.523859 1.273466 -34.794541 2.341271 10.947294 34.034820 5.542728 -1.042420 -21.047116 0.000000 0.000000 0.000000 -23.985760 -1.083844 -2.804917 -52.049760 -4.287316 -7.245263 -2.137435 -27.646249 1.775930 0.000000 0.000000 0.000000 26.921566 -6.946797 -3.240470 53.623014 9.304798 -5.205451 3.029736 30.643930 3.068408 0.000000 0.000000 0.000000 
0.021861 1.009715 0.364740 0.563186 -5.611123 -7.173711 11.916887 1.158709 -32.147604 -15.018658 4.951477 25.751471 8.366821 17.537091 21.542021 0.000000 0.000000 0.000000 0.255272 -0.842111 9.182063 -0.235060 0.516778 9.913644 1.709034 1.905038 3.602254 0.000000 0.000000 0.000000 0.468454 -0.718525 21.136994 -2.067007 1.160572 -33.362737 2.418650 11.805027 32.642947 5.721686 -1.150300 -20.069816 0.000000 0.000000 0.000000 -24.271781 -2.065004 -2.563357 -52.234286 -4.068988 -7.115203 0.149818 -24.957671 1.028667 0.000000 0.000000 0.000000 28.526406 -6.631079 -2.975371 52.814708 10.393484 -4.664410 1.038979 31.746288 2.687896 0.000000 0.000000 0.000000 
0.032085 1.002897 0.398694 0.552972 -5.436897 -7.176377 11.137326 0.844744 -30.920764 -14.838502 4.726144 24.640995 8.563162 17.798958 21.575155 0.000000 0.000000 0.000000 -0.761482 -0.843004 10.439959 -0.164300 0.603581 11.710366 1.203067 2.197711 1.253412 0.000000 0.000000 0.000000 0.554358 -0.742447 21.162257 -1.139216 1.025734 -34.038970 1.466370 12.834846 33.199569 6.375785 -1.640877 -18.623598 0.000000 0.000000 0.000000 -22.968009 -2.295351 -2.544029 -53.461321 -3.966200 -7.394033 0.793296 -23.290278 0.789356 0.000000 0.000000 0.000000 29.661993 -6.859242 -2.757539 52.631799 10.907523 -4.670225 1.141080 31.470692 2.766044 0.000000 0.000000 0.000000 
0.044450 1.000173 0.432716 0.446147 -4.937117 -6.045429 9.756476 0.357317 -30.991523 -14.242696 4.611779 25.795256 10.188244 19.934941 20.212812 0.000000 0.000000 0.000000 -1.590767 -0.801895 11.009920 -0.837521 0.830567 13.249928 1.532236 3.262171 0.906276 0.000000 0.000000 0.000000 0.980830 -0.782134 19.213434 -1.292538 1.016180 -32.920211 0.893380 12.893950 32.308424 6.539531 -1.595631 -19.248079 0.000000 0.000000 0.000000 -22.308304 -1.563297 -3.012188 -54.089177 -3.065730 -7.775286 0.633375 -23.195935 0.787257 0.000000 0.000000 0.000000 30.685663 -7.080221 -2.883189 52.783719 10.541596 -4.787763 0.778680 31.874174 2.738301 0.000000 0.000000 0.000000 
0.058310 1.003811 0.466061 0.684135 -4.369005 -4.465462 7.934599 -0.259036 -31.367068 -14.333034 4.599029 25.830092 12.136424 22.642479 17.979058 0.000000 0.000000 0.000000 -3.105141 -0.625430 10.956699 -1.271748 0.984272 14.295027 2.478253 3.216851 4.505092 0.000000 0.000000 0.000000 0.825756 -0.733576 17.892545 -1.302403 1.057744 -34.173206 0.716110 13.561426 32.618575 7.365917 -1.868257 -20.159483 0.000000 0.000000 0.000000 -20.547029 -1.591008 -2.965474 -55.034300 -1.865803 -8.532917 -0.834365 -24.319016 1.082393 0.000000 0.000000 0.000000 31.112475 -8.189980 -3.350882 53.391709 8.863109 -5.598488 2.241539 32.623587 3.323714 0.000000 0.000000 0.000000 
0.072756 1.011522 0.499204 0.924103 -2.705660 -3.261671 6.107173 -0.974093 -31.227555 -14.673623 4.614788 26.528095 12.210289 23.070328 16.051425 0.000000 0.000000 0.000000 -4.348920 -0.524813 11.103134 -1.315975 1.029550 15.464652 4.078347 3.660903 9.900364 0.000000 0.000000 0.000000 0.689041 -0.729072 17.114112 -1.906753 1.151689 -34.329576 0.776417 13.619496 31.973694 7.705552 -1.923595 -20.131408 0.000000 0.000000 0.000000 -19.452245 -1.272419 -3.285510 -55.444708 -1.556136 -8.659956 -1.982675 -25.386271 1.290627 0.000000 0.000000 0.000000 31.102502 -9.005584 -3.560659 54.159584 7.607642 -6.125121 2.592542 32.373302 3.470907 0.000000 0.000000 0.000000 
0.087596 1.022180 0.532568 1.323723 0.012644 -2.540457 3.906421 -1.798054 -30.164412 -15.038266 4.422188 26.709097 12.502912 23.838819 14.670890 0.000000 0.000000 0.000000 -5.456812 -0.469089 10.916926 -1.013609 0.965799 17.101246 5.240034 2.682432 16.897581 0.000000 0.000000 0.000000 0.768227 -0.752830 16.013979 -3.205428 1.347750 -33.896677 1.024887 12.957078 31.931411 7.146031 -1.252966 -20.725276 0.000000 0.000000 0.000000 -19.461932 -1.823766 -3.353525 -55.068957 -1.587985 -8.439819 -1.990190 -26.326564 1.239232 0.000000 0.000000 0.000000 30.869057 -9.622531 -3.574570 54.940018 6.780946 -6.512177 3.786762 31.919481 3.814193 0.000000 0.000000 0.000000 
